<svg xmlns="http://www.w3.org/2000/svg" width="400" height="400" viewBox="0 0 400 400">
<g>
<path d="M 197.57 256.86 L 182.64 268.00 L 116.63 268.00 L 99.31 250.79 L 82.00 233.57 L 82.00 166.48 L 98.76 149.74 L 115.52 133.00 L 183.48 133.00 L 200.24 149.74 L 217.00 166.48 L 217.00 133.00 L 318.00 133.00 L 317.99 166.50 L 285.75 190.70 C268.01,204.01 252.60,215.59 251.50,216.44 C250.40,217.29 244.55,221.67 238.50,226.17 C232.45,230.67 224.12,236.91 220.00,240.03 C215.88,243.16 205.78,250.73 197.57,256.86 Z" fill="rgb(22,24,27)"/>
<path d="M 0.00 0.00 L 400.00 0.00 L 400.00 400.00 L 0.00 400.00 ZM 113.59 269.86 C113.30,270.33 114.18,270.50 115.55,270.24 C116.91,269.97 118.32,269.25 118.68,268.63 C118.89,268.25 118.96,268.03 118.88,268.00 L 182.64 268.00 L 185.63 265.76 C183.45,267.52 183.78,267.82 185.42,269.20 C187.77,271.16 190.00,271.52 190.00,269.94 C190.00,269.36 190.49,269.19 191.10,269.56 C191.89,270.05 191.90,269.69 191.16,268.30 C190.02,266.17 190.10,264.23 191.43,262.11 C191.78,261.53 190.97,261.89 189.50,262.88 L 194.94 258.82 C192.31,261.07 192.66,261.82 195.75,262.22 C199.42,262.69 200.19,262.22 199.09,260.16 C198.51,259.08 198.56,257.75 199.22,256.57 C199.71,255.69 199.63,255.46 198.83,255.92 C201.04,254.27 203.35,252.54 205.62,250.84 C205.43,251.01 205.25,251.20 205.07,251.42 C204.10,252.59 204.25,252.75 205.94,252.30 C207.07,252.01 208.00,251.37 208.00,250.88 C208.00,249.93 207.20,249.80 206.26,250.36 C209.04,248.28 211.73,246.26 214.08,244.49 C209.94,247.85 208.33,249.70 208.69,250.62 C209.01,251.47 209.56,251.79 209.91,251.33 C211.25,249.54 217.26,244.58 216.52,245.88 C215.97,246.83 216.16,247.10 217.11,246.75 C217.87,246.48 218.36,245.67 218.19,244.96 C217.96,243.97 218.30,244.00 219.64,245.08 C220.75,245.99 221.11,246.05 220.63,245.25 C219.68,243.66 221.22,243.62 222.80,245.20 C223.46,245.86 224.00,246.12 224.00,245.77 C224.00,245.43 223.30,244.45 222.45,243.60 C221.25,242.40 221.15,241.59 221.99,240.02 C222.58,238.91 223.62,237.94 224.29,237.87 C224.95,237.80 226.53,237.64 227.78,237.51 C230.72,237.20 231.09,236.77 229.98,234.97 C229.34,233.96 228.89,233.61 226.52,235.12 C229.51,232.88 232.84,230.38 235.88,228.12 C234.74,229.06 234.00,229.80 234.00,230.03 C234.00,231.15 239.23,230.25 240.00,229.01 C240.38,228.38 241.42,227.76 242.30,227.63 C244.29,227.34 248.11,223.98 247.52,223.04 C247.29,222.66 248.65,222.39 250.55,222.46 C253.88,222.57 254.00,222.45 254.00,218.87 C254.00,216.83 254.56,214.94 255.25,214.66 C255.94,214.38 256.05,214.13 255.50,214.09 C255.07,214.06 254.23,214.47 253.17,215.18 C254.87,213.89 257.77,211.71 261.49,208.91 C257.83,211.74 256.90,212.68 257.09,213.25 C257.17,213.49 257.47,213.67 257.84,213.90 C258.91,214.56 262.50,214.70 263.79,214.13 C263.94,214.06 263.64,213.19 263.10,212.20 C261.81,209.79 262.93,208.23 266.41,207.60 C269.57,207.03 277.00,202.26 277.00,200.80 C277.00,200.30 277.45,200.16 278.00,200.50 C278.55,200.84 279.00,200.67 279.00,200.13 C279.00,199.58 279.91,198.85 281.01,198.50 C282.12,198.14 282.73,197.37 282.36,196.77 C281.99,196.18 282.10,195.93 282.60,196.23 C283.09,196.52 284.53,196.38 285.79,195.90 C287.65,195.20 287.90,194.68 287.09,193.17 C286.40,191.88 286.45,190.95 287.25,190.15 C287.79,189.61 288.07,189.16 287.97,189.03 L 299.75 180.19 C293.47,185.15 291.59,186.89 290.93,188.12 C290.17,189.56 290.24,189.96 291.21,189.76 C291.92,189.62 292.39,190.06 292.25,190.75 C291.97,192.16 294.13,192.01 295.18,190.55 C295.55,190.03 295.44,188.83 294.93,187.87 C293.67,185.52 296.40,182.85 299.50,183.41 C301.48,183.77 303.59,181.96 302.72,180.64 C302.25,179.94 305.27,177.05 306.00,177.50 C306.42,177.76 307.01,177.06 307.31,175.93 C307.54,175.03 307.56,174.56 307.35,174.49 L 313.44 169.92 C310.69,172.18 307.71,175.92 309.93,174.55 C310.52,174.18 311.00,174.26 311.00,174.73 C311.00,175.20 312.76,175.56 314.90,175.54 C317.05,175.52 318.60,175.16 318.35,174.75 C318.09,174.34 318.28,174.00 318.77,174.00 C319.90,174.00 319.70,171.04 318.42,168.76 C317.55,167.22 317.25,167.18 314.72,168.96 L 317.99 166.50 L 318.00 133.00 L 217.00 133.00 L 217.00 166.48 L 211.70 161.18 C216.14,165.49 216.61,165.28 216.83,163.45 C217.01,161.94 216.79,160.44 216.33,160.11 C214.86,159.03 212.46,155.59 213.69,156.33 C214.45,156.79 214.83,156.37 214.74,155.17 C214.64,153.93 213.90,153.35 212.55,153.46 C209.55,153.70 206.23,150.38 206.55,147.45 C206.70,146.10 206.45,145.22 205.98,145.51 C205.52,145.80 204.87,145.60 204.55,145.08 C204.22,144.55 203.05,144.30 201.93,144.51 C198.74,145.13 197.17,144.06 197.46,141.46 C197.61,140.04 196.89,138.33 195.69,137.28 C194.57,136.30 194.00,136.09 194.43,136.82 C194.97,137.74 194.65,138.04 193.35,137.82 C191.05,137.42 189.97,135.04 191.10,132.86 C192.03,131.08 190.43,129.24 188.25,129.56 C187.56,129.67 186.44,129.81 185.75,129.89 C182.66,130.24 182.05,131.16 184.10,133.62 L 183.48 133.00 L 115.82 133.00 C116.45,132.39 116.99,131.83 117.23,131.50 C117.67,130.90 117.98,131.07 117.98,131.92 C117.99,132.70 118.27,133.06 118.60,132.73 C118.93,132.40 118.48,131.10 117.60,129.84 C116.72,128.58 116.00,128.15 116.00,128.88 C116.00,129.68 115.37,129.97 114.45,129.62 C113.56,129.28 113.16,129.44 113.51,130.01 C113.84,130.56 113.73,131.00 113.26,131.00 C112.79,131.00 112.40,132.11 112.40,133.47 C112.40,135.45 112.45,135.81 113.59,134.93 L 98.76 149.74 L 86.51 161.97 L 89.15 159.25 L 85.59 160.37 C82.06,161.47 80.47,163.33 81.56,165.09 C81.81,165.49 81.96,165.77 82.18,165.84 C82.37,165.90 82.60,165.80 82.98,165.50 L 82.00 166.48 L 82.00 233.57 L 84.34 235.90 C83.11,234.86 82.12,234.48 81.69,234.91 C80.49,236.11 81.67,237.92 84.35,239.01 C87.82,240.41 88.36,240.13 86.21,237.76 L 99.31 250.79 L 114.57 265.96 C112.78,264.54 112.12,264.88 112.27,267.00 C112.36,268.10 112.81,269.00 113.27,269.00 C113.74,269.00 113.88,269.38 113.59,269.86 ZM 97.67 148.58 C98.14,149.81 99.54,148.91 103.97,144.53 C109.70,138.86 111.02,136.26 108.07,136.48 C105.39,136.67 104.32,137.80 104.53,140.21 C104.80,143.33 103.45,144.77 100.56,144.46 C97.96,144.17 96.68,146.00 97.67,148.58 ZM 105.21 262.54 C106.14,264.04 109.79,263.81 109.57,262.26 C109.46,261.53 106.94,258.48 103.97,255.47 C99.87,251.31 98.39,250.34 97.79,251.42 C96.49,253.73 97.92,255.83 100.59,255.54 C103.29,255.24 104.46,256.43 104.53,259.50 C104.55,260.60 104.86,261.97 105.21,262.54 ZM 89.64 156.50 C89.95,157.32 90.30,158.00 90.41,158.00 C90.52,158.00 92.16,156.33 94.05,154.29 C95.95,152.25 96.82,151.04 96.00,151.60 C95.18,152.16 93.51,152.54 92.30,152.45 C89.93,152.26 88.72,154.10 89.64,156.50 ZM 90.61 246.82 C90.33,247.27 91.45,247.64 93.10,247.64 L 96.09 247.64 L 93.55 245.10 C91.15,242.70 90.92,242.65 89.29,244.28 C87.66,245.91 87.67,246.00 89.34,246.00 C90.32,246.00 90.89,246.37 90.61,246.82 ZM 313.02 132.22 C313.03,133.12 313.32,133.05 314.00,132.00 C314.65,131.00 314.97,130.92 314.98,131.75 C315.01,133.49 317.66,133.32 318.35,131.53 C318.66,130.72 318.59,129.88 318.21,129.65 C316.97,128.92 313.00,130.89 313.02,132.22 ZM 286.24 190.33 C285.83,190.73 285.38,191.21 284.92,191.72 C283.59,193.22 283.23,193.88 284.13,193.19 C285.45,192.19 285.87,192.21 286.30,193.33 C286.69,194.35 286.09,194.63 284.04,194.39 C282.07,194.16 279.48,195.52 272.50,200.64 C276.61,197.55 281.10,194.18 285.75,190.70 ZM 217.75 131.16 C218.33,133.37 218.72,133.43 220.53,131.61 C221.72,130.42 221.58,130.15 219.60,129.77 C217.74,129.42 217.37,129.69 217.75,131.16 ZM 250.25 217.39 C248.82,218.58 247.29,220.00 245.87,221.47 C244.29,223.11 243.00,224.09 243.00,223.66 C243.00,223.30 241.60,224.00 239.71,225.27 C244.07,222.02 248.17,218.96 250.25,217.39 ZM 246.59 223.26 C246.84,223.51 246.36,224.28 245.52,224.98 C244.57,225.77 244.00,225.84 244.00,225.18 C244.00,223.97 245.90,222.56 246.59,223.26 ZM 284.50 198.00 C284.84,198.55 285.32,199.00 285.56,199.00 C285.80,199.00 286.00,198.55 286.00,198.00 C286.00,197.45 285.52,197.00 284.94,197.00 C284.36,197.00 284.16,197.45 284.50,198.00 ZM 197.00 142.56 C197.00,142.80 196.55,143.00 196.00,143.00 C195.45,143.00 195.00,142.52 195.00,141.94 C195.00,141.36 195.45,141.16 196.00,141.50 C196.55,141.84 197.00,142.32 197.00,142.56 ZM 204.38 153.84 C205.22,154.69 206.00,155.49 206.73,156.22 L 200.24 149.74 L 188.34 137.85 C191.85,141.23 198.56,147.90 204.38,153.84 ZM 118.83 268.00 C118.77,268.01 118.68,268.08 118.55,268.19 C118.31,268.41 117.79,268.32 117.18,268.00 Z" fill="rgb(254,254,254)"/>
<path d="M 113.59 269.86 C113.88,269.38 113.74,269.00 113.27,269.00 C112.81,269.00 112.36,268.10 112.27,267.00 C112.09,264.48 113.05,264.47 115.70,266.94 C116.85,268.01 118.13,268.57 118.55,268.19 C118.98,267.81 119.03,268.01 118.68,268.63 C118.32,269.25 116.91,269.97 115.55,270.24 C114.18,270.50 113.30,270.33 113.59,269.86 ZM 185.42 269.20 C183.36,267.47 183.37,267.44 187.82,264.09 C190.28,262.23 191.90,261.34 191.43,262.11 C190.10,264.23 190.02,266.17 191.16,268.30 C191.90,269.69 191.89,270.05 191.10,269.56 C190.49,269.19 190.00,269.36 190.00,269.94 C190.00,271.52 187.77,271.16 185.42,269.20 ZM 105.21 262.54 C104.86,261.97 104.55,260.60 104.53,259.50 C104.46,256.43 103.29,255.24 100.59,255.54 C97.92,255.83 96.49,253.73 97.79,251.42 C98.39,250.34 99.87,251.31 103.97,255.47 C106.94,258.48 109.46,261.53 109.57,262.26 C109.79,263.81 106.14,264.04 105.21,262.54 ZM 195.75 262.22 C192.10,261.75 192.28,260.79 196.64,257.46 C199.33,255.41 200.00,255.18 199.22,256.57 C198.56,257.75 198.51,259.08 199.09,260.16 C200.19,262.22 199.42,262.69 195.75,262.22 ZM 205.07 251.42 C206.39,249.83 208.00,249.53 208.00,250.88 C208.00,251.37 207.07,252.01 205.94,252.30 C204.25,252.75 204.10,252.59 205.07,251.42 ZM 208.69 250.62 C208.27,249.53 210.58,247.15 216.57,242.53 C228.29,233.49 228.85,233.17 229.98,234.97 C231.09,236.77 230.72,237.20 227.78,237.51 C226.53,237.64 224.95,237.80 224.29,237.87 C223.62,237.94 222.58,238.91 221.99,240.02 C221.15,241.59 221.25,242.40 222.45,243.60 C223.30,244.45 224.00,245.43 224.00,245.77 C224.00,246.12 223.46,245.86 222.80,245.20 C221.22,243.62 219.68,243.66 220.63,245.25 C221.11,246.05 220.75,245.99 219.64,245.08 C218.30,244.00 217.96,243.97 218.19,244.96 C218.36,245.67 217.87,246.48 217.11,246.75 C216.16,247.10 215.97,246.83 216.52,245.88 C217.26,244.58 211.25,249.54 209.91,251.33 C209.56,251.79 209.01,251.47 208.69,250.62 ZM 90.61 246.82 C90.89,246.37 90.32,246.00 89.34,246.00 C87.67,246.00 87.66,245.91 89.29,244.28 C90.92,242.65 91.15,242.70 93.55,245.10 L 96.09 247.64 L 93.10 247.64 C91.45,247.64 90.33,247.27 90.61,246.82 ZM 84.35 239.01 C81.67,237.92 80.49,236.11 81.69,234.91 C82.25,234.35 83.74,235.16 85.49,236.99 C88.43,240.06 88.16,240.54 84.35,239.01 ZM 234.00 230.03 C234.00,229.65 236.02,227.88 238.50,226.11 C240.98,224.33 243.00,223.23 243.00,223.66 C243.00,224.09 244.29,223.11 245.87,221.47 C249.66,217.53 254.26,214.01 255.50,214.09 C256.05,214.13 255.94,214.38 255.25,214.66 C254.56,214.94 254.00,216.83 254.00,218.87 C254.00,222.45 253.88,222.57 250.55,222.46 C248.65,222.39 247.29,222.66 247.52,223.04 C248.11,223.98 244.29,227.34 242.30,227.63 C241.42,227.76 240.38,228.38 240.00,229.01 C239.23,230.25 234.00,231.15 234.00,230.03 ZM 246.59 223.26 C245.90,222.56 244.00,223.97 244.00,225.18 C244.00,225.84 244.57,225.77 245.52,224.98 C246.36,224.28 246.84,223.51 246.59,223.26 ZM 257.84 213.90 C256.15,212.86 256.09,212.91 269.88,202.59 C278.87,195.86 281.84,194.14 284.04,194.39 C286.09,194.63 286.69,194.35 286.30,193.33 C285.87,192.21 285.45,192.19 284.13,193.19 C283.23,193.88 283.59,193.22 284.92,191.72 C286.26,190.22 287.59,189.00 287.87,189.00 C288.16,189.00 287.88,189.52 287.25,190.15 C286.45,190.95 286.40,191.88 287.09,193.17 C287.90,194.68 287.65,195.20 285.79,195.90 C284.53,196.38 283.09,196.52 282.60,196.23 C282.10,195.93 281.99,196.18 282.36,196.77 C282.73,197.37 282.12,198.14 281.01,198.50 C279.91,198.85 279.00,199.58 279.00,200.13 C279.00,200.67 278.55,200.84 278.00,200.50 C277.45,200.16 277.00,200.30 277.00,200.80 C277.00,202.26 269.57,207.03 266.41,207.60 C262.93,208.23 261.81,209.79 263.10,212.20 C263.64,213.19 263.94,214.06 263.79,214.13 C262.50,214.70 258.91,214.56 257.84,213.90 ZM 284.50 198.00 C284.16,197.45 284.36,197.00 284.94,197.00 C285.52,197.00 286.00,197.45 286.00,198.00 C286.00,198.55 285.80,199.00 285.56,199.00 C285.32,199.00 284.84,198.55 284.50,198.00 ZM 292.25 190.75 C292.39,190.06 291.92,189.62 291.21,189.76 C290.24,189.96 290.17,189.56 290.93,188.12 C291.79,186.52 294.70,184.06 306.67,174.79 C307.51,174.14 307.69,174.47 307.31,175.93 C307.01,177.06 306.42,177.76 306.00,177.50 C305.27,177.05 302.25,179.94 302.72,180.64 C303.59,181.96 301.48,183.77 299.50,183.41 C296.40,182.85 293.67,185.52 294.93,187.87 C295.44,188.83 295.55,190.03 295.18,190.55 C294.13,192.01 291.97,192.16 292.25,190.75 ZM 311.00 174.73 C311.00,174.26 310.52,174.18 309.93,174.55 C307.47,176.06 311.40,171.31 314.31,169.24 C317.22,167.18 317.50,167.15 318.42,168.76 C319.70,171.04 319.90,174.00 318.77,174.00 C318.28,174.00 318.09,174.34 318.35,174.75 C318.60,175.16 317.05,175.52 314.90,175.54 C312.76,175.56 311.00,175.20 311.00,174.73 ZM 81.56 165.09 C80.47,163.33 82.06,161.47 85.59,160.37 L 89.15 159.25 L 85.88 162.63 C82.22,166.40 82.33,166.34 81.56,165.09 ZM 204.38 153.84 C197.72,147.05 189.92,139.30 187.04,136.62 C181.92,131.84 181.63,130.35 185.75,129.89 C186.44,129.81 187.56,129.67 188.25,129.56 C190.43,129.24 192.03,131.08 191.10,132.86 C189.97,135.04 191.05,137.42 193.35,137.82 C194.65,138.04 194.97,137.74 194.43,136.82 C194.00,136.09 194.57,136.30 195.69,137.28 C196.89,138.33 197.61,140.04 197.46,141.46 C197.17,144.06 198.74,145.13 201.93,144.51 C203.05,144.30 204.22,144.55 204.55,145.08 C204.87,145.60 205.52,145.80 205.98,145.51 C206.45,145.22 206.70,146.10 206.55,147.45 C206.23,150.38 209.55,153.70 212.55,153.46 C213.90,153.35 214.64,153.93 214.74,155.17 C214.83,156.37 214.45,156.79 213.69,156.33 C212.46,155.59 214.86,159.03 216.33,160.11 C216.79,160.44 217.01,161.94 216.83,163.45 C216.52,166.00 215.74,165.40 204.38,153.84 ZM 197.00 142.56 C197.00,142.32 196.55,141.84 196.00,141.50 C195.45,141.16 195.00,141.36 195.00,141.94 C195.00,142.52 195.45,143.00 196.00,143.00 C196.55,143.00 197.00,142.80 197.00,142.56 ZM 89.64 156.50 C88.72,154.10 89.93,152.26 92.30,152.45 C93.51,152.54 95.18,152.16 96.00,151.60 C96.82,151.04 95.95,152.25 94.05,154.29 C92.16,156.33 90.52,158.00 90.41,158.00 C90.30,158.00 89.95,157.32 89.64,156.50 ZM 97.67 148.58 C96.68,146.00 97.96,144.17 100.56,144.46 C103.45,144.77 104.80,143.33 104.53,140.21 C104.32,137.80 105.39,136.67 108.07,136.48 C111.02,136.26 109.70,138.86 103.97,144.53 C99.54,148.91 98.14,149.81 97.67,148.58 ZM 112.40 133.47 C112.40,132.11 112.79,131.00 113.26,131.00 C113.73,131.00 113.84,130.56 113.51,130.01 C113.16,129.44 113.56,129.28 114.45,129.62 C115.37,129.97 116.00,129.68 116.00,128.88 C116.00,128.15 116.72,128.58 117.60,129.84 C118.48,131.10 118.93,132.40 118.60,132.73 C118.27,133.06 117.99,132.70 117.98,131.92 C117.98,131.07 117.67,130.90 117.23,131.50 C116.83,132.05 115.58,133.28 114.45,134.22 C112.47,135.89 112.40,135.86 112.40,133.47 ZM 217.75 131.16 C217.37,129.69 217.74,129.42 219.60,129.77 C221.58,130.15 221.72,130.42 220.53,131.61 C218.72,133.43 218.33,133.37 217.75,131.16 ZM 313.02 132.22 C313.00,130.89 316.97,128.92 318.21,129.65 C318.59,129.88 318.66,130.72 318.35,131.53 C317.66,133.32 315.01,133.49 314.98,131.75 C314.97,130.92 314.65,131.00 314.00,132.00 C313.32,133.05 313.03,133.12 313.02,132.22 Z" fill="rgb(246,247,247)"/>
</g>
</svg>